<svg version="1.1" xmlns="http://www.w3.org/2000/svg" xmlns:xlink="http://www.w3.org/1999/xlink" width="618.19323" height="509.72309" viewBox="0,0,618.19323,509.72309"><g transform="translate(69.09659,74.65444)"><g data-paper-data="{&quot;isPaintingLayer&quot;:true}" fill-rule="nonzero" stroke-linejoin="miter" stroke-miterlimit="10" stroke-dasharray="" stroke-dashoffset="0" style="mix-blend-mode: normal"><g stroke="#000000" stroke-width="2"><path d="M-68.09659,-30.15888c0,-23.74802 19.25158,-42.9996 42.9996,-42.9996c23.74802,0 42.9996,19.25158 42.9996,42.9996c0,23.74802 -19.25158,42.9996 -42.9996,42.9996c-23.74802,0 -42.9996,-19.25158 -42.9996,-42.9996z" fill="#ffffff" stroke-linecap="butt"/><path d="M-38.45879,-24.8902v-28.02721" fill="none" stroke-linecap="round"/><path d="M-11.73518,-53.24331v28.02721" fill="none" stroke-linecap="round"/><path d="M1.47816,-19.08343c0,0 -7.34573,16.44071 -25.23897,16.62803c-18.78334,0.19664 -27.6144,-16.03417 -27.6144,-16.03417" fill="none" stroke-linecap="round"/></g><g stroke="#000000" stroke-width="2"><path d="M27.66304,-30.65484c0,-23.74802 19.25158,-42.9996 42.9996,-42.9996c23.74802,0 42.9996,19.25158 42.9996,42.9996c0,23.74802 -19.25158,42.9996 -42.9996,42.9996c-23.74802,0 -42.9996,-19.25158 -42.9996,-42.9996z" fill="#ffffff" stroke-linecap="butt"/><path d="M57.30083,-25.38616v-28.02721" fill="none" stroke-linecap="round"/><path d="M84.02445,-25.71206v-28.02721" fill="none" stroke-linecap="round"/><path d="M44.38442,-3.54345c0,0 8.83106,-16.23081 27.6144,-16.03417c17.89323,0.18732 25.23897,16.62803 25.23897,16.62803" data-paper-data="{&quot;index&quot;:null}" fill="none" stroke-linecap="round"/></g><g stroke="#000000" stroke-width="2" stroke-linecap="butt"><path d="M63.53634,84.41063v-43.20318h9.35327v43.20318c0,0 0.75636,8.89686 4.89446,8.8719c4.1381,-0.02496 5.14937,-8.93249 5.14937,-8.93249l9.1081,0.50598c0,0 1.29578,18.55397 -14.44477,18.46483c-14.67138,-0.08308 -14.06043,-18.91022 -14.06043,-18.91022z" fill="#333333"/><path d="M29.68643,62.34811c0,0 5.20218,-27.64579 38.30385,-27.08166c34.44069,0.58695 41.42161,27.08166 41.42161,27.08166l-10.24357,5.45716l-9.26228,-5.65784l-10.51177,5.44459l-10.28685,-5.67939l-10.73578,5.64568l-8.90973,-5.48798l-10.50651,5.69278z" fill="#333333"/><path d="M39.23407,88.26247c-4.79419,-0.17364 -5.76886,-6.6703 -5.76886,-6.6703l5.94915,-8.47316l5.94915,8.47316c0,0 -1.15181,6.85058 -6.12944,6.6703z" fill="#ffffff"/><path d="M103.14807,88.93056c-4.79419,-0.17364 -5.76886,-6.6703 -5.76886,-6.6703l5.94915,-8.47316l5.94915,8.47316c0,0 -1.15181,6.85058 -6.12944,6.6703z" fill="#ffffff"/><path d="M69.74355,82.91775c-4.79419,-0.17364 -5.76886,-6.6703 -5.76886,-6.6703l5.94915,-8.47316l5.94915,8.47316c0,0 -1.15181,6.85058 -6.12944,6.6703z" fill="#ffffff"/></g><g fill="#333333" stroke="#000000" stroke-width="2" stroke-linecap="butt"><path d="M163.81542,81.52484c0,0 -20.21806,16.1631 -30.08986,7.93006c-8.53648,-7.11939 1.98945,-27.31757 1.98945,-27.31757l29.68457,-29.68457l29.68457,29.68457c0,0 7.65586,19.56734 0.00925,28.10965c-7.76422,8.67369 -31.27798,-8.72214 -31.27798,-8.72214z"/><path d="M140.25097,107.24858l11.72059,-14.22008l12.04185,-5.90322l12.04185,6.29926l10.67159,14.08516z"/></g><path d="M258.17337,110.28135l-40.43632,-40.43633l40.43632,-40.43632l40.43632,40.43632z" fill="#333333" stroke="#000000" stroke-width="2" stroke-linecap="butt"/><g fill="#333333" stroke="#000000" stroke-width="2" stroke-linecap="butt"><path d="M345.53601,174.28729c0,0 -21.46991,18.73324 -31.42604,2.58534c-8.28129,-13.43147 20.53918,-22.26144 20.53918,-22.26144c0,0 -15.44607,-28.05424 11.27097,-28.41156c24.86142,-0.3325 11.12898,28.6053 11.12898,28.6053c0,0 26.61289,8.763 17.53792,22.41438c-9.57413,14.40226 -29.05101,-2.93202 -29.05101,-2.93202z"/><path d="M321.97157,200.90182l11.72059,-14.22008l12.04185,-6.34861l12.04185,6.74466l10.67159,14.08516z"/></g><path d="M34.0779,193.56619l0.00001,-81.05098h81.05097v81.05098z" fill="#333333" stroke="#000000" stroke-width="2" stroke-linecap="butt"/><path d="M59.00006,173.38657l0.5917,-26.77791l27.21462,-0.20699l0.60086,-17.58794l-28.59522,0.2935l0.50368,-10.43077h11.78371l27.46027,0.03694l-0.24995,40.38146l-26.22191,0.42104l-0.98841,13.87067z" fill="#ffffff" stroke="#000000" stroke-width="2" stroke-linecap="butt"/><path d="M59.3157,189.16833v-10.20554h11.78371v10.20554z" fill="#ffffff" stroke="#000000" stroke-width="2" stroke-linecap="butt"/><g stroke="#000000" stroke-width="2" stroke-linecap="butt"><path d="M-59.03451,104.10737l0.00001,-81.05098h81.05097v81.05098z" fill="#333333"/><g fill="#ffffff"><path d="M-24.32766,83.92775v-54.71012h11.78371v54.71012z"/><path d="M-24.32766,99.70951v-10.20554h11.78371v10.20554z"/></g></g><g fill="none" stroke="#000000" stroke-width="2" stroke-linecap="round"><path d="M194.09748,154.18892h-51.13292"/><path d="M169.16231,128.93809v51.13292"/></g><path d="M278.90225,155.39534h-51.13292" fill="none" stroke="#000000" stroke-width="2" stroke-linecap="round"/><g stroke="#000000" stroke-width="2"><g><g><path d="M219.47924,-30.20945c0,-23.74802 19.25158,-42.9996 42.9996,-42.9996c23.74802,0 42.9996,19.25158 42.9996,42.9996c0,23.74802 -19.25158,42.9996 -42.9996,42.9996c-23.74802,0 -42.9996,-19.25158 -42.9996,-42.9996z" fill="#ffffff" stroke-linecap="butt"/><path d="M239.31838,-37.82459l19.59732,-0.18105" fill="none" stroke-linecap="round"/><path d="M266.93278,-38.15049l18.4096,0.11588" fill="none" stroke-linecap="round"/></g><path d="M233.47313,-11.16372h58.49503" fill="none" stroke-linecap="round"/></g><path d="M249.28005,-30.67114v-5.79012" fill="none" stroke-linecap="round"/><path d="M276.00363,-36.90665v5.79012" fill="none" stroke-linecap="round"/></g><path d="M372.10958,243.70189l-18.64628,7.14149l4.543,23.95828l-17.12827,-16.5309l-18.40099,15.06257l8.51427,-24.04899l-19.32108,-6.45668l20.29043,-7.26242l11.37338,-23.18579l8.81856,22.34736z" fill="#ffffff" stroke="#000000" stroke-width="2" stroke-linecap="butt"/><path d="M391.80748,243.34444c0,-18.18336 14.74053,-32.92389 32.92389,-32.92389c18.18336,0 32.92389,14.74053 32.92389,32.92389c0,18.18336 -14.74053,32.92389 -32.92389,32.92389c-18.18336,0 -32.92389,-14.74053 -32.92389,-32.92389z" fill="#ffffff" stroke="#000000" stroke-width="2" stroke-linecap="butt"/><path d="M-21.75935,251.70542l-31.74246,-31.74246l31.74246,-31.74246l31.74246,31.74246z" fill="#ffffff" stroke="#000000" stroke-width="2" stroke-linecap="butt"/><path d="M-45.57715,172.27908v-44.89062h44.89061v44.89061z" fill="#ffffff" stroke="#000000" stroke-width="2" stroke-linecap="butt"/><path d="M425.16457,194.41239l-31.77904,-39.93919c0,0 -10.47352,-20.71051 1.45513,-24.68368c11.92865,-3.97317 30.32391,14.64488 30.32391,14.64488c0,0 15.09653,-19.22106 28.83561,-14.64488c13.73908,4.57618 6.20749,24.68368 6.20749,24.68368z" fill="#333333" stroke="#000000" stroke-width="2" stroke-linecap="butt"/><path d="M479.7382,268.82421l27.29517,-52.14134l27.29517,52.14134z" fill="#ffffff" stroke="#000000" stroke-width="2" stroke-linecap="butt"/><path d="M281.5021,208.28668l-27.29517,52.14134l-27.29517,-52.14134z" data-paper-data="{&quot;index&quot;:null}" fill="#ffffff" stroke="#000000" stroke-width="2" stroke-linecap="butt"/><g fill="#ffffff" stroke="#000000" stroke-width="2" stroke-linecap="butt"><path d="M22.83902,238.46677c0,-16.2512 13.1742,-29.4254 29.4254,-29.4254c16.2512,0 29.42541,13.1742 29.42541,29.4254c0,16.2512 -13.17421,29.42541 -29.42541,29.42541c-16.2512,0 -29.4254,-13.17421 -29.4254,-29.42541z"/><path d="M30.85611,238.68947c0,-11.7005 9.48513,-21.18562 21.18562,-21.18562c11.7005,0 21.18562,9.48513 21.18562,21.18562c0,11.7005 -9.48513,21.18562 -21.18562,21.18562c-11.7005,0 -21.18562,-9.48513 -21.18562,-21.18562z"/></g><g fill="none" stroke="#000000" stroke-width="2" stroke-linecap="round"><path d="M148.09858,255.33429l41.40923,-41.40923"/><path d="M190.27465,255.07868l-41.40923,-41.40923"/></g><path d="M372.55096,319.0443l-18.64628,7.14149l4.54299,23.95828l-17.12827,-16.5309l-18.401,15.06258l8.51427,-24.049l-19.32108,-6.45668l20.29043,-7.26242l11.37338,-23.18579l8.81856,22.34736z" fill="#333333" stroke="#000000" stroke-width="2" stroke-linecap="butt"/><path d="M392.24887,318.68685c0,-18.18336 14.74052,-32.92389 32.92388,-32.92389c18.18336,0 32.92389,14.74053 32.92389,32.92389c0,18.18336 -14.74053,32.92388 -32.92389,32.92388c-18.18336,0 -32.92388,-14.74052 -32.92388,-32.92388z" fill="#333333" stroke="#000000" stroke-width="2" stroke-linecap="butt"/><path d="M340.54392,433.65444l-31.74246,-31.74246l31.74246,-31.74246l31.74246,31.74246z" fill="#333333" stroke="#000000" stroke-width="2" stroke-linecap="butt"/><path d="M402.12206,421.44205v-44.89062h44.89061v44.89061z" fill="#333333" stroke="#000000" stroke-width="2" stroke-linecap="butt"/><path d="M480.17958,344.16662l27.29517,-52.14134l27.29517,52.14134z" fill="#333333" stroke="#000000" stroke-width="2" stroke-linecap="butt"/><path d="M535.03579,375.38466l-27.29517,52.14134l-27.29517,-52.14134z" data-paper-data="{&quot;index&quot;:null}" fill="#333333" stroke="#000000" stroke-width="2" stroke-linecap="butt"/><g fill="#ffffff" stroke="#000000" stroke-width="2" stroke-linecap="butt"><path d="M374.63628,81.51242c0,15.37129 -12.90912,27.83217 -28.83333,27.83217c-15.92421,0 -28.83333,-12.46089 -28.83333,-27.83217c0,-15.37128 12.90912,-27.83217 28.83333,-27.83217c15.92421,0 28.83333,12.46089 28.83333,27.83218z"/><path d="M367.30295,53.28441c0,11.19527 -9.40202,20.27083 -21,20.27083c-11.59798,0 -21,-9.07556 -21,-20.27083c0,-11.19527 9.40202,-20.27083 21,-20.27083c11.59798,0 21,9.07556 21,20.27083z"/></g><g fill="#ffffff" stroke="#000000" stroke-width="2" stroke-linecap="butt"><path d="M395.03581,99.93596v-50.5h65.5v50.5z"/><path d="M397.03581,49.43596h61.5l-31.4542,22z"/></g><g stroke="#000000" stroke-width="2" stroke-linecap="butt"><path d="M517.23182,48.119v-26.47537h9.45549v26.47537z" fill="#333333"/><path d="M496.37063,101.56221v-59.68779h30.13938v59.68779z" fill="#333333"/><path d="M501.39387,64.9025v-17.49266h20.3293v17.49266z" fill="#ffffff"/><path d="M500.9211,96.1844v-26.71176h20.56569v26.71176z" fill="#ffffff"/></g><g stroke="#000000" stroke-width="2"><g><g><path d="M122.97729,-29.31866c0,-23.74802 19.25158,-42.9996 42.9996,-42.9996c23.74802,0 42.9996,19.25158 42.9996,42.9996c0,23.74802 -19.25158,42.9996 -42.9996,42.9996c-23.74802,0 -42.9996,-19.25158 -42.9996,-42.9996z" fill="#ffffff" stroke-linecap="butt"/><path d="M163.30452,-45.44191l-19.15193,18.27418" fill="none" stroke-linecap="round"/><path d="M192.25511,-26.15745l-21.37889,-19.28446" fill="none" stroke-linecap="round"/></g><path d="M170.87622,-4.24871c0,2.58599 -0.90991,4.68234 -4.56814,4.68234c-3.65823,0 -4.33973,-2.09636 -4.33973,-4.68234c0,-2.58599 0.68151,-4.68234 4.33973,-4.68234c3.65823,0 4.56814,2.09636 4.56814,4.68234z" fill="#333333" stroke-linecap="butt"/></g><path d="M154.37765,-36.68433v14.2526" fill="none" stroke-linecap="round"/><path d="M180.80432,-22.43173v-13.65874" fill="none" stroke-linecap="round"/></g><path d="M324.62694,-15.10215c-4.32779,-3.71818 -7.15071,-9.82397 -7.15071,-16.72585c0,-9.19162 5.00665,-16.9713 11.90673,-19.57998" fill="#ffffff" stroke="#000000" stroke-width="2" stroke-linecap="butt"/><g stroke="#000000" stroke-width="2"><path d="M433.78929,-26.05942c0,-13.20279 10.70298,-23.90577 23.90577,-23.90577c13.20279,0 23.90577,10.70298 23.90577,23.90577c0,13.20279 -10.70298,23.90577 -23.90577,23.90577c-13.20279,0 -23.90577,-10.70298 -23.90577,-23.90577z" fill="#ffffff" stroke-linecap="butt"/><g fill="none" stroke-linecap="round"><path d="M437.19321,-46.93874l-8.27284,-8.27283"/><path d="M478.8007,-5.81789l8.39449,8.39449"/></g><g fill="none" stroke-linecap="round"><path d="M431.82731,-39.45252l-10.43034,-5.29978"/><path d="M484.13486,-13.26039l10.58373,5.37772"/></g><g fill="none" stroke-linecap="round"><path d="M417.5199,-32.68434l11.55016,1.86371"/><path d="M498.59567,-19.95063l-11.72001,-1.89112"/></g><g fill="none" stroke-linecap="round"><path d="M429.10253,-21.61001l-11.55875,1.80967"/><path d="M486.84304,-30.99834l11.72874,-1.83628"/></g><g fill="none" stroke-linecap="round"><path d="M432.00148,-12.84025l-10.42312,5.31396"/><path d="M494.53721,-45.10868l-10.5764,5.3921"/></g><g fill="none" stroke-linecap="round"><path d="M429.20332,2.85918l8.26158,-8.28407"/><path d="M478.52916,-47.08825l8.38308,-8.4059"/></g><g fill="none" stroke-linecap="round"><path d="M439.4843,10.27327l5.33923,-10.4102"/><path d="M471.21352,-52.34495l5.41775,-10.56329"/></g><g fill="none" stroke-linecap="round"><path d="M453.59405,2.67634l-1.84802,11.55268"/><path d="M462.49434,-55.14142l1.87519,-11.72258"/></g><g fill="none" stroke-linecap="round"><path d="M466.28571,13.95697l-2.19366,-11.49206"/><path d="M450.55981,-66.59194l2.22592,11.66107"/></g><g fill="none" stroke-linecap="round"><path d="M478.20189,9.63587l-5.59626,-10.27432"/><path d="M444.32218,-51.84543l-5.67855,-10.42541"/></g></g><g stroke="#000000" stroke-width="2"><path d="M482.24887,160.68685c0,-18.18336 14.74052,-32.92389 32.92388,-32.92389c18.18336,0 32.92389,14.74053 32.92389,32.92389c0,18.18336 -14.74053,32.92388 -32.92389,32.92388c-18.18336,0 -32.92388,-14.74052 -32.92388,-32.92388z" fill="#ffffff" stroke-linecap="butt"/><path d="M509.45887,126.46717c3.16982,3.06248 1.10014,8.5438 -4.62277,12.24288c-5.72291,3.69908 -12.93189,4.21514 -16.10171,1.15266c-3.16982,-3.06248 -1.10014,-8.5438 4.62277,-12.24288c5.72291,-3.69908 12.93189,-4.21514 16.10171,-1.15266z" fill="#333333" stroke-linecap="butt"/><path d="M539.16941,127.95317c5.7229,3.69907 7.79259,9.1804 4.62277,12.24287c-3.16982,3.06248 -10.37881,2.54641 -16.10171,-1.15267c-5.7229,-3.69907 -7.79259,-9.1804 -4.62277,-12.24287c3.16983,-3.06248 10.37881,-2.54641 16.10171,1.15267z" data-paper-data="{&quot;index&quot;:null}" fill="#333333" stroke-linecap="butt"/><path d="M533.7633,165.44271h-18.33333v-18.33333" fill="none" stroke-linecap="round"/></g><g fill="#ffffff" stroke-linecap="butt"><path d="M383.66668,-45.55444c0,0.15647 -0.01437,0.30958 -0.04187,0.45808c1.58868,2.92933 2.81239,6.14736 3.8628,9.24879c0.07226,6.62814 -0.30068,12.71456 -1.00136,19.1265c0.00459,-0.00002 0.00918,-0.00004 0.01377,-0.00004c1.38071,0 2.5,1.11929 2.5,2.5c0,0.77789 -0.35528,1.4728 -0.91243,1.93131c0.54143,1.25749 0.89727,2.76094 1.53984,3.8844l0.22014,1.78848c0,0 0,3.69171 -3.45745,3.69172h-0.00001c-0.68188,0 -1.22928,-0.14359 -1.66872,-0.37414c-2.39809,2.97837 -6.38746,3.84766 -9.65116,5.34171c-2.999,1.37287 -6.16205,3.85331 -9.07857,5.0933c-0.05168,-0.0111 -0.1044,-0.01905 -0.1583,-0.02345c-0.36118,-0.02948 -0.66777,0.20226 -0.97311,0.45004c-0.30573,0.10108 -0.60978,0.19021 -0.9122,0.26801c-0.12292,0.09775 -0.2471,0.1937 -0.37265,0.28771c-4.43211,0.1019 -8.81924,0.34894 -13.26745,0.33608c-0.82722,-0.7692 -1.78493,-1.39996 -2.83624,-1.85541c-0.10002,-0.50808 -0.09626,-1.10536 0.0676,-1.8052c0.05574,-0.23806 0.12259,-0.45633 0.19883,-0.65641c-0.50236,-0.24223 -1.00433,-0.48263 -1.50643,-0.71717c-3.8763,-1.81072 -6.9565,-2.7147 -10.47727,-5.3787c-3.56813,-2.18879 -8.33781,-5.37721 -10.34971,-9.33833c-2.03663,-4.00981 -0.35836,-9.12728 0.12824,-13.15905c0.61896,-5.12841 -1.03891,-10.29387 -0.43684,-15.3926c0.29879,-2.53041 1.7258,-4.77883 2.22658,-7.2726c0.17756,-0.88419 0.01398,-1.85138 -0.01524,-2.77443c1.16333,-1.08158 2.06865,-2.43693 2.61345,-3.96352c0.48783,-0.3273 0.96487,-0.66809 1.3524,-1.09608c0.92894,-1.02592 1.3398,-2.54528 2.37254,-3.45101c3.34085,-2.93002 8.08607,-3.96758 12.20626,-4.54324c0,0 1.57851,-0.21069 2.67318,0.83601c2.45445,-0.25472 5.00045,-0.35185 7.12882,0.1413c0.46681,0.10816 0.90217,0.24791 1.31267,0.41289c1.17768,-0.66239 2.51369,-0.34538 2.51369,-0.34538c2.70456,0.68448 5.35711,1.82819 7.72206,3.40425c1.73658,2.9593 4.95167,4.94618 8.63082,4.94618c0.12751,0 0.25446,-0.00239 0.38081,-0.00712c2.26417,1.41539 4.11635,3.36462 5.66839,5.61111c1.03186,0.30785 1.78412,1.26407 1.78412,2.396z" stroke="none" stroke-width="0.5"/><path d="M346.07602,-61.64721c2.83224,-2.55232 6.34581,-4.06335 10.15166,-4.06335c7.03012,0 13.06293,5.1558 15.6464,12.50666" stroke="#000000" stroke-width="2"/><path d="M327.40824,-49.01213c2.15621,-8.3401 8.60279,-14.39345 16.22029,-14.39345c1.92046,0 3.76648,0.38475 5.48811,1.0939" stroke="#000000" stroke-width="2"/><path d="M369.75304,-54.53964c0.57412,-0.07079 1.15671,-0.10705 1.74631,-0.10705c6.08353,0 11.42025,3.86084 14.4212,9.66395" stroke="#000000" stroke-width="2"/><path d="M345.3905,3.22745c-1.74774,0.7335 -3.62527,1.13206 -5.5799,1.13206c-9.38292,0 -16.98929,-9.1843 -16.98929,-20.5137c0,-0.9726 0.05606,-1.9294 0.16449,-2.86593" stroke="#000000" stroke-width="2"/><path d="M389.41057,-7.4811c-1.97592,8.68605 -8.56279,15.06757 -16.38406,15.06757c-3.08578,0 -5.97941,-0.99335 -8.47353,-2.72966" stroke="#000000" stroke-width="2"/><path d="M366.53752,4.76181c-2.85911,2.63956 -6.43282,4.20765 -10.30985,4.20765c-4.94549,0 -9.39744,-2.55146 -12.50222,-6.62366" stroke="#000000" stroke-width="2"/><path d="M383.40311,-45.84747c1.20635,-0.32814 2.46129,-0.50131 3.74972,-0.50131c9.38292,0 16.98928,9.18431 16.98928,20.5137c0,11.15446 -7.37327,20.22956 -16.55593,20.50715" stroke="#000000" stroke-width="2"/></g></g></g></svg>